# xmcd CD Database Entry
#
# Track frame offsets:
# 200
# 17182
# 35495
# 52282
# 69852
# 86717
# 100025
# 115000
# 133327
#
# Disc length: 1974 seconds
#
# Revision: 1
# Processed by: cddbd v1.4b41PL1 Copyright (c) Steve Scherf et al.
# Submitted via: tcd 2.0b
#
DISCID=7907b409
DTITLE=Blue Bog Love - Big Fish, Little Pond
DYEAR=1900
DGENRE=
TTITLE0=Backs Against The Wall
TTITLE1=Blue Skies
TTITLE2=Love Drug No. 9 (Please Me)
TTITLE3=Crack Corner
TTITLE4=Johnny Who
TTITLE5=One Step Away
TTITLE6=Lonely
TTITLE7=Power
TTITLE8=Just Another Man
EXTD=
EXTT0=
EXTT1=
EXTT2=
EXTT3=
EXTT4=
EXTT5=
EXTT6=
EXTT7=
EXTT8=
PLAYORDER=
